<svg width="960" height="540" viewBox="0 0 960 540" fill="none" xmlns="http://www.w3.org/2000/svg">
<rect width="960" height="540" fill="#F5F5F5"/>
<g clip-path="url(#clip0_0_1)">
<g filter="url(#filter0_f_0_1)">
<path d="M923 372C1123.48 372 1286 209.479 1286 9C1286 -191.479 1123.48 -354 923 -354C722.521 -354 560 -191.479 560 9C560 209.479 722.521 372 923 372Z" fill="#E6C2BF"/>
<path d="M323 883C523.479 883 686 720.479 686 520C686 319.521 523.479 157 323 157C122.521 157 -40 319.521 -40 520C-40 720.479 122.521 883 323 883Z" fill="#FAD02C"/>
<path d="M788 845C988.479 845 1151 682.479 1151 482C1151 281.521 988.479 119 788 119C587.521 119 425 281.521 425 482C425 682.479 587.521 845 788 845Z" fill="#FAD02C"/>
<path d="M94 707C294.479 707 457 544.479 457 344C457 143.521 294.479 -19 94 -19C-106.479 -19 -269 143.521 -269 344C-269 544.479 -106.479 707 94 707Z" fill="#E6C2BF"/>
<path d="M186 369C386.479 369 549 206.479 549 6C549 -194.479 386.479 -357 186 -357C-14.4794 -357 -177 -194.479 -177 6C-177 206.479 -14.4794 369 186 369Z" fill="#FAD02C"/>
</g>
<path d="M67.3529 134.287C88.8593 127.285 107.984 128.855 134.991 126.213C161.956 123.509 196.905 116.609 214.56 130.374C232.215 144.139 232.661 178.692 225.65 210.388C218.691 242.093 204.319 271.002 183.85 273.529C163.372 276.109 136.747 252.297 111.804 243.606C86.9205 234.871 63.7189 241.255 44.9746 231.957C26.2908 222.614 12.0643 197.588 16.9509 177.27C21.8376 156.952 45.8465 141.289 67.3529 134.287Z" fill="#DBE8D8" fill-opacity="0.45"/>
<g clip-path="url(#clip1_0_1)">
<path d="M123.047 352.78C107.268 335.141 108.898 304.069 112.822 268.792C116.754 233.481 122.934 193.989 143.769 192.115C164.605 190.24 200.012 225.999 230.36 243.02C260.708 260.04 285.923 258.304 309.244 271.621C332.527 284.928 353.926 313.253 352.539 341.065C351.161 368.842 326.997 396.105 298.658 402.311C270.289 408.473 237.698 393.603 204.841 384.092C171.985 374.581 138.826 370.419 123.047 352.78Z" fill="#DBE8D8" fill-opacity="0.45"/>
</g>
<path d="M923.637 85.8183C951.678 97.6116 969.241 134.973 954.921 158.463C940.601 181.953 894.398 191.572 866.306 207.908C838.265 224.245 828.336 247.348 809.625 255.903C790.864 264.41 763.371 258.368 737.575 241.983C711.829 225.647 687.779 199.015 689.026 173.543C690.224 148.072 716.769 123.808 742.515 112.063C768.311 100.27 793.359 101.043 825.192 94.4699C856.976 87.9449 895.545 74.0733 923.637 85.8183Z" fill="#DBE8D8" fill-opacity="0.45"/>
<g clip-path="url(#clip2_0_1)">
<path d="M0 422L22.8 418.8C45.7 415.7 91.3 409.3 137 412.3C182.7 415.3 228.3 427.7 274 434.2C319.7 440.7 365.3 441.3 411.2 433.8C457 426.3 503 410.7 548.8 404.8C594.7 399 640.3 403 686 412.2C731.7 421.3 777.3 435.7 823 441.2C868.7 446.7 914.3 443.3 937.2 441.7L960 440V541H937.2C914.3 541 868.7 541 823 541C777.3 541 731.7 541 686 541C640.3 541 594.7 541 548.8 541C503 541 457 541 411.2 541C365.3 541 319.7 541 274 541C228.3 541 182.7 541 137 541C91.3 541 45.7 541 22.8 541H0V422Z" fill="#6A6A6A"/>
<path d="M0 425L22.8 426C45.7 427 91.3 429 137 431.7C182.7 434.3 228.3 437.7 274 440.2C319.7 442.7 365.3 444.3 411.2 445.2C457 446 503 446 548.8 451.3C594.7 456.7 640.3 467.3 686 467.2C731.7 467 777.3 456 823 452.2C868.7 448.3 914.3 451.7 937.2 453.3L960 455V541H937.2C914.3 541 868.7 541 823 541C777.3 541 731.7 541 686 541C640.3 541 594.7 541 548.8 541C503 541 457 541 411.2 541C365.3 541 319.7 541 274 541C228.3 541 182.7 541 137 541C91.3 541 45.7 541 22.8 541H0V425Z" fill="#757474"/>
<path d="M0 467L22.8 471.2C45.7 475.3 91.3 483.7 137 484.3C182.7 485 228.3 478 274 475.5C319.7 473 365.3 475 411.2 473C457 471 503 465 548.8 463.5C594.7 462 640.3 465 686 463.8C731.7 462.7 777.3 457.3 823 454C868.7 450.7 914.3 449.3 937.2 448.7L960 448V541H937.2C914.3 541 868.7 541 823 541C777.3 541 731.7 541 686 541C640.3 541 594.7 541 548.8 541C503 541 457 541 411.2 541C365.3 541 319.7 541 274 541C228.3 541 182.7 541 137 541C91.3 541 45.7 541 22.8 541H0V467Z" fill="#817F7F"/>
<path d="M0 477L22.8 480C45.7 483 91.3 489 137 491.2C182.7 493.3 228.3 491.7 274 494.2C319.7 496.7 365.3 503.3 411.2 504.2C457 505 503 500 548.8 494.5C594.7 489 640.3 483 686 485.7C731.7 488.3 777.3 499.7 823 500.5C868.7 501.3 914.3 491.7 937.2 486.8L960 482V541H937.2C914.3 541 868.7 541 823 541C777.3 541 731.7 541 686 541C640.3 541 594.7 541 548.8 541C503 541 457 541 411.2 541C365.3 541 319.7 541 274 541C228.3 541 182.7 541 137 541C91.3 541 45.7 541 22.8 541H0V477Z" fill="#989494"/>
<path d="M0 497L22.8 498.3C45.7 499.7 91.3 502.3 137 507.7C182.7 513 228.3 521 274 524.2C319.7 527.3 365.3 525.7 411.2 523.5C457 521.3 503 518.7 548.8 518.8C594.7 519 640.3 522 686 524.2C731.7 526.3 777.3 527.7 823 526.5C868.7 525.3 914.3 521.7 937.2 519.8L960 518V541H937.2C914.3 541 868.7 541 823 541C777.3 541 731.7 541 686 541C640.3 541 594.7 541 548.8 541C503 541 457 541 411.2 541C365.3 541 319.7 541 274 541C228.3 541 182.7 541 137 541C91.3 541 45.7 541 22.8 541H0V497Z" fill="#989494"/>
</g>
</g>
<defs>
<filter id="filter0_f_0_1" x="-595" y="-683" width="2207" height="1892" filterUnits="userSpaceOnUse" color-interpolation-filters="sRGB">
<feFlood flood-opacity="0" result="BackgroundImageFix"/>
<feBlend mode="normal" in="SourceGraphic" in2="BackgroundImageFix" result="shape"/>
<feGaussianBlur stdDeviation="163" result="effect1_foregroundBlur_0_1"/>
</filter>
<clipPath id="clip0_0_1">
<rect width="960" height="540" fill="white"/>
</clipPath>
<clipPath id="clip1_0_1">
<rect width="373" height="193" fill="white" transform="translate(387.83 443.698) rotate(-165.472)"/>
</clipPath>
<clipPath id="clip2_0_1">
<rect width="960" height="540" fill="white"/>
</clipPath>
</defs>
</svg>
